<svg id="Layer_1" data-name="Layer 1" xmlns="http://www.w3.org/2000/svg" viewBox="0 0 849.15494 650.33826"><defs><style>.cls-1{opacity:0.9;}.cls-2{fill:#fff;}.cls-3{fill:#e6e6e6;}.cls-4{opacity:0.75;}.cls-5{fill:#ff0;}</style></defs><path d="M1564.4757,409.5598l65.6845-16.5396c2.5175-.6337,2.2053-6.2491.6521-10.5563l14.6452-3.6879a2.97456,2.97456,0,1,0-1.4524-5.7691l-25.718,6.4761c-.0884.0222-.167.0614-.2515.091l-51.732,13.0263a24.677,24.677,0,0,1-19.8366,15.3954,25.06,25.06,0,0,1-4.1232.1864,24.64019,24.64019,0,0,1-17.2541-7.913,24.97254,24.97254,0,0,1-3.4958-4.8046l-1.7904-.2225a7.95254,7.95254,0,0,0-2.6255-.1846c-5.3118.514-11.3845,3.8738-16.9629,7.9411a119.50365,119.50365,0,0,0-12.8623,11.0638c-12.7295-4.7383-27.5537-8.6162-34.9199-4.6435a10.75334,10.75334,0,0,0-5.5713,7.4409,8.00143,8.00143,0,0,0,13.9043,6.7954c4.5498.102,15.6611,3.1777,25.6103,7.1914a7.99749,7.99749,0,0,0,8.8262-1.9385c2.5526-2.7157,5.5377-5.5615,8.543-8.1718,1.8178-1.5789,3.6369-3.0633,5.3786-4.3821l-6.6391,53.4427a7.72166,7.72166,0,0,0,.0097,1.923,12.20361,12.20361,0,0,0,.8706,4.3554l8.938,22.2505,44.0404-23.3057Z" transform="translate(-890.23488 -111.5714)"/><g class="cls-1"><rect class="cls-2" x="1487.1814" y="299.54296" width="2.70875" height="57.82329" transform="translate(321.30163 -1282.08064) rotate(67.08693)"/><rect class="cls-2" x="1491.87472" y="310.64568" width="2.70877" height="57.82324" transform="translate(334.34308 -1279.61447) rotate(67.08498)"/><rect class="cls-2" x="1489.52807" y="274.02972" width="2.70877" height="119.95246" transform="matrix(0.38937, 0.92108, -0.92108, 0.38937, 327.79688, -1280.84285)"/></g><path d="M1400.8733,423.0955l-6.4424,5.154c18.2031,19.8944,49.4598,39.2101,84.2466,54.2068l-2.3042-15.3608Z" transform="translate(-890.23488 -111.5714)"/><path d="M1521.5381,498.1561c63.6295,19.3511,127.6588,21.5665,139.628-11.1583a150.84265,150.84265,0,0,0,4.8483-15.9639l-94.6411.5616Z" transform="translate(-890.23488 -111.5714)"/><path d="M1429.2225,684.6866h0a9.02656,9.02656,0,0,1-5.3609-11.5439l37.0979-101.4286a9.02638,9.02638,0,0,1,11.5439-5.3608h0a9.02641,9.02641,0,0,1,5.3609,11.5438l-37.0979,101.4286A9.02656,9.02656,0,0,1,1429.2225,684.6866Z" transform="translate(-890.23488 -111.5714)"/><path d="M1218.3151,607.6305h0a12.666,12.666,0,0,0,17.6891-2.4628l84.4692-111.7948a12.66573,12.66573,0,0,0-2.4628-17.689h0a12.66573,12.66573,0,0,0-17.689,2.4628l-84.4693,111.7948A12.66584,12.66584,0,0,0,1218.3151,607.6305Z" transform="translate(-890.23488 -111.5714)"/><rect x="1305.10773" y="475.64111" width="64.46645" height="13.95168" transform="translate(1834.20456 683.06756) rotate(172.83403)"/><path class="cls-2" d="M1310.9075,493.2736a5.25,5.25,0,1,1-3.1271-6.7339A5.2499,5.2499,0,0,1,1310.9075,493.2736Z" transform="translate(-890.23488 -111.5714)"/><path d="M1307.9336,492.1859a2.08337,2.08337,0,1,1-1.241-2.6722A2.08343,2.08343,0,0,1,1307.9336,492.1859Z" transform="translate(-890.23488 -111.5714)"/><path d="M1640.0756,761.891h0a12.66566,12.66566,0,0,1-11.9257-13.2945l7.5936-139.9123a12.66581,12.66581,0,0,1,13.2945-11.9258h0a12.66588,12.66588,0,0,1,11.9257,13.2946l-7.5936,139.9123A12.66566,12.66566,0,0,1,1640.0756,761.891Z" transform="translate(-890.23488 -111.5714)"/><rect x="1597.56286" y="582.6077" width="64.46642" height="13.95171" transform="translate(68.88573 -1120.12377) rotate(47.34636)"/><path class="cls-2" d="M1643.116,614.7802a5.25,5.25,0,1,0,6.7339-3.1272A5.25005,5.25005,0,0,0,1643.116,614.7802Z" transform="translate(-890.23488 -111.5714)"/><path d="M1646.09,615.8679a2.08332,2.08332,0,1,0,2.6722-1.2409A2.08336,2.08336,0,0,0,1646.09,615.8679Z" transform="translate(-890.23488 -111.5714)"/><path d="M1583.8853,261.826c-95.9169-35.082-202.1122,14.2345-237.1942,110.1514s14.2342,202.1123,110.1511,237.1944c95.917,35.082,202.1128-14.2344,237.1947-110.1513C1729.1189,403.1036,1679.8023,296.908,1583.8853,261.826ZM1374.8652,382.2822c29.3438-80.2281,118.4868-121.6255,198.7152-92.2816,80.2278,29.3436,121.6252,118.4867,92.2815,198.7148C1636.5181,568.9435,1345.5215,462.5103,1374.8652,382.2822Z" transform="translate(-890.23488 -111.5714)"/><path d="M1508.9978,527.9379a50.59087,50.59087,0,1,1-71.5455-.0037A50.58978,50.58978,0,0,1,1508.9978,527.9379Z" transform="translate(-890.23488 -111.5714)"/><circle class="cls-2" cx="1473.22412" cy="563.7091" r="44.63062" transform="translate(-461.95145 1633.77056) rotate(-69.45172)"/><rect x="1479.82787" y="525.71799" width="13.6221" height="2.62528" transform="translate(-409.18843 1630.63014) rotate(-69.91117)"/><rect x="1452.99607" y="599.07823" width="13.62217" height="2.62525" transform="translate(-495.74286 1653.55537) rotate(-69.90912)"/><rect x="1464.72666" y="518.8552" width="2.62713" height="7.48095" transform="translate(-958.41638 149.2154) rotate(-9.93548)"/><rect x="1479.09214" y="601.08523" width="2.62801" height="7.47939" transform="translate(-972.22427 152.17328) rotate(-9.90783)"/><rect x="1445.1312" y="527.95491" width="2.6267" height="7.47979" transform="translate(-894.58446 939.83252) rotate(-39.89153)"/><rect x="1498.6872" y="591.98529" width="2.62684" height="7.47808" transform="translate(-922.96949 989.73381) rotate(-39.91589)"/><rect x="1428.3668" y="569.57989" width="7.481" height="2.62797" transform="translate(-967.27042 144.14156) rotate(-9.93763)"/><rect x="1510.59709" y="555.21395" width="7.47977" height="2.6272" transform="translate(-963.37854 157.12874) rotate(-9.90197)"/><rect x="1437.46807" y="589.17515" width="7.47932" height="2.62605" transform="translate(-933.76604 949.34895) rotate(-39.86032)"/><rect x="1501.4969" y="535.61959" width="7.48175" height="2.62752" transform="translate(-884.24444 978.80173) rotate(-39.8932)"/><rect x="1435.22826" y="543.48346" width="2.62623" height="13.62168" transform="translate(-463.52224 1599.20593) rotate(-69.93115)"/><rect x="1508.59046" y="570.31665" width="2.62627" height="13.62025" transform="translate(-440.97794 1685.35571) rotate(-69.91047)"/><rect x="1475.71122" y="555.29401" width="4.00501" height="33.36532" transform="translate(-985.40389 652.3299) rotate(-28.11675)"/><rect x="1450.3919" y="574.23531" width="40.77756" height="2.91833" transform="translate(-269.74817 1795.14528) rotate(-78.80485)"/><path d="M1412.0475,535.9793a51.92129,51.92129,0,1,1-35.592-64.2245A51.91945,51.91945,0,0,1,1412.0475,535.9793Z" transform="translate(-890.23488 -111.5714)"/><circle class="cls-2" cx="1362.14048" cy="521.66242" r="45.80475" transform="translate(-507.23782 1491.21846) rotate(-68.78931)"/><rect x="1368.91792" y="482.67187" width="13.98051" height="2.69441" transform="translate(-441.5411 1498.35674) rotate(-69.90862)"/><rect x="1341.38026" y="557.96193" width="13.98057" height="2.69434" transform="translate(-530.30362 1521.94326) rotate(-69.90988)"/><rect x="1353.41944" y="475.62858" width="2.69627" height="7.67775" transform="translate(-952.65159 129.41563) rotate(-9.93734)"/><rect x="1368.16292" y="560.02175" width="2.69711" height="7.67614" transform="translate(-966.83979 132.52763) rotate(-9.90966)"/><rect x="1333.30843" y="484.96768" width="2.69588" height="7.67654" transform="translate(-893.09384 858.16242) rotate(-39.89177)"/><rect x="1388.27338" y="550.68233" width="2.69594" height="7.67489" transform="translate(-922.24188 909.33073) rotate(-39.91687)"/><rect x="1316.10313" y="527.68763" width="7.67779" height="2.69709" transform="translate(-961.72632 124.14052) rotate(-9.93697)"/><rect x="1400.49657" y="512.94379" width="7.67661" height="2.69633" transform="translate(-957.75542 137.58988) rotate(-9.90222)"/><rect x="1325.44382" y="547.79841" width="7.67611" height="2.69512" transform="translate(-933.27379 868.02463) rotate(-39.8611)"/><rect x="1391.15696" y="492.83396" width="7.67863" height="2.69663" transform="translate(-882.48356 898.15153) rotate(-39.8934)"/><rect x="1323.14511" y="500.90471" width="2.69532" height="13.97999" transform="matrix(0.34315, -0.93928, 0.93928, 0.34315, -497.2926, 1466.11385)"/><rect x="1398.43716" y="528.4438" width="2.69533" height="13.9785" transform="translate(-474.11526 1554.56447) rotate(-69.91047)"/><rect x="1353.9567" y="515.95583" width="34.24235" height="4.11078" transform="translate(-984.54742 435.09453) rotate(-21.81746)"/><rect x="1355.5792" y="489.2498" width="2.99545" height="41.85005" transform="translate(-980.23907 487.44243) rotate(-24.11616)"/><path d="M1600.3549,653.2129a51.92134,51.92134,0,1,1,35.0991-64.4946A51.91926,51.91926,0,0,1,1600.3549,653.2129Z" transform="translate(-890.23488 -111.5714)"/><circle class="cls-2" cx="1585.65893" cy="603.41515" r="45.80471" transform="translate(-378.76814 1805.05935) rotate(-71.5514)"/><rect x="1592.43634" y="564.4246" width="13.98052" height="2.69445" transform="translate(-371.53756 1761.98) rotate(-69.91061)"/><rect x="1564.89876" y="639.71463" width="13.98048" height="2.69444" transform="translate(-460.32561 1785.54682) rotate(-69.91061)"/><rect x="1576.93789" y="557.38128" width="2.69623" height="7.67779" transform="matrix(0.98499, -0.17261, 0.17261, 0.98499, -963.41655, 169.27527)"/><rect x="1591.68133" y="641.77451" width="2.69714" height="7.67613" transform="translate(-977.56101 172.15244) rotate(-9.90757)"/><rect x="1556.82692" y="566.72043" width="2.69582" height="7.67654" transform="translate(-893.50543 1020.53368) rotate(-39.8915)"/><rect x="1611.79178" y="632.43514" width="2.69598" height="7.67486" transform="translate(-922.61555 1071.80736) rotate(-39.91687)"/><rect x="1539.62158" y="609.44032" width="7.67779" height="2.69711" transform="translate(-972.49302 163.99773) rotate(-9.93906)"/><rect x="1624.01498" y="594.69649" width="7.6766" height="2.69638" transform="translate(-968.48243 177.23475) rotate(-9.90186)"/><rect x="1548.96229" y="629.55112" width="7.67608" height="2.69516" transform="translate(-933.72348 1030.29079) rotate(-39.86137)"/><rect x="1614.67542" y="574.58675" width="7.6786" height="2.6966" transform="translate(-882.9072 1060.49064) rotate(-39.89177)"/><rect x="1546.66354" y="582.65742" width="2.69528" height="13.98" transform="translate(-427.2784 1729.7465) rotate(-69.93062)"/><rect x="1621.95558" y="610.19653" width="2.69529" height="13.97848" transform="translate(-404.15142 1818.15498) rotate(-69.91047)"/><rect x="1575.85419" y="580.53116" width="4.11102" height="34.24307" transform="translate(-739.8119 1385.67534) rotate(-52.9637)"/><rect x="1589.48203" y="593.85951" width="2.99565" height="41.85013" transform="translate(-1000.11492 630.69884) rotate(-25.41398)"/><circle cx="1395.9641" cy="601.42975" r="38.08339" transform="translate(-1006.79534 339.18338) rotate(-17.61912)"/><path class="cls-2" d="M1419.0168,611.8107l1.2578-3.439-3.7337-1.3657q.22635-.85065.3749-1.7058l3.948.3821.2971-3.6576-3.9397-.3812c-.006-.5872-.0424-1.1715-.0988-1.7527l3.8915-.6268-.6841-3.6269-3.8957.6274c-.1612-.5665-.3438-1.1266-.5524-1.6776l3.5753-1.5935-1.6186-3.3491-3.5753,1.5936c-.3036-.5087-.6313-1.0042-.9778-1.488l3.0139-2.4522-2.4431-2.8431-3.0105,2.4498c-.4257-.4166-.8671-.8205-1.3304-1.2038l2.24-3.1356-3.1006-2.1433-2.2447,3.1425q-.7767-.44205-1.5986-.8262l1.3241-3.6201-3.5472-1.2974-1.3241,3.6201q-.8757-.23835-1.7544-.4002l.3125-3.8492-3.7517-.363-.312,3.8408c-.601-.0059-1.1988.0178-1.7928.0614l-.7195-3.8139-3.7009.5959.7205,3.818c-.5769.1461-1.147.3132-1.7071.506l-1.7034-3.5243-3.3975,1.5144,1.7034,3.5243c-.5148.2864-1.0157.5965-1.5043.9253l-2.5716-2.9928-2.8631,2.3295,2.5691,2.9897c-.4183.4076-.8229.8306-1.2063,1.2754l-3.256-2.2506-2.1331,2.986,3.2631,2.2555q-.4368.74985-.8141,1.5451l-3.7338-1.3656-1.2578,3.439,3.7338,1.3656q-.2265.85065-.375,1.7058l-3.9482-.3821-.2969,3.6576,3.9397.3813c.006.5872.0422,1.1714.0988,1.7527l-3.8918.6266.6845,3.627,3.8957-.6273c.1612.5664.3437,1.1265.5523,1.6775l-3.5753,1.5936,1.6186,3.349,3.5753-1.5935c.3036.5087.6313,1.0041.9778,1.4879l-3.0138,2.4522,2.4431,2.8432,3.0104-2.4498c.4257.4166.8671.8204,1.3301,1.2037l-2.2397,3.1357,3.1006,2.1432,2.2447-3.1424q.7767.442,1.5986.8261l-1.3241,3.6202,3.5472,1.2974,1.3241-3.6202q.8757.23835,1.7545.4003l-.3126,3.8491,3.7518.3631.3116-3.8409c.6014.0059,1.1991-.0177,1.7931-.0614l.7195,3.814,3.701-.5959-.7205-3.818c.5768-.1462,1.1469-.3132,1.707-.506l1.7035,3.5242,3.3974-1.5144-1.7034-3.5243c.5149-.2863,1.0157-.5965,1.5043-.9253l2.5717,2.9929,2.8627-2.3297-2.5688-2.9895c.4181-.4077.8229-.8306,1.2063-1.2754l3.256,2.2505,2.1328-2.986-3.2628-2.2554q.4368-.74985.8141-1.5452Zm-28.7132,5.0942a16.486,16.486,0,1,1,21.622-9.6374A16.743,16.743,0,0,1,1390.3036,616.9049Z" transform="translate(-890.23488 -111.5714)"/><path class="cls-3" d="M1394.6698,592.3553a4.3345,4.3345,0,1,0,5.5114-2.4566A4.2677,4.2677,0,0,0,1394.6698,592.3553Z" transform="translate(-890.23488 -111.5714)"/><path class="cls-2" d="M1397.2582,610.5036a4.33453,4.33453,0,1,0-5.5118,2.4566A4.268,4.268,0,0,0,1397.2582,610.5036Z" transform="translate(-890.23488 -111.5714)"/><path class="cls-2" d="M1392.2081,600.0558a4.33434,4.33434,0,1,0-5.5114,2.4566A4.26764,4.26764,0,0,0,1392.2081,600.0558Z" transform="translate(-890.23488 -111.5714)"/><path class="cls-2" d="M1405.231,600.3465a4.2023,4.2023,0,1,0,2.6262,5.433A4.26757,4.26757,0,0,0,1405.231,600.3465Z" transform="translate(-890.23488 -111.5714)"/><circle cx="1508.34945" cy="642.5351" r="38.08329" transform="translate(-994.73393 236.53352) rotate(-12.72771)"/><path class="cls-2" d="M1531.4021,652.916l1.2578-3.439-3.7337-1.3656q.22635-.85065.3749-1.7058l3.948.382.2971-3.6575-3.9397-.3812c-.0059-.5872-.0424-1.1715-.0987-1.7528l3.8915-.6267-.6842-3.6269-3.8957.6274c-.1612-.5665-.3438-1.1266-.5523-1.6776l3.5752-1.5935-1.6186-3.3491-3.5753,1.5936c-.3035-.5087-.6313-1.0042-.9777-1.488l3.0138-2.4522-2.4431-2.8431-3.0105,2.4497c-.4257-.4166-.8671-.8204-1.3304-1.2037l2.2401-3.1357-3.1007-2.1432-2.2446,3.1425q-.77685-.4422-1.5987-.8262l1.3241-3.6201-3.5472-1.2974-1.3241,3.6201q-.8757-.23835-1.7544-.4002l.3125-3.8492-3.7517-.363-.312,3.8408c-.601-.006-1.1988.0178-1.7928.0614l-.7195-3.814-3.7009.5959.7205,3.8181c-.5769.1461-1.147.3132-1.7071.506l-1.7034-3.5243-3.3975,1.5144,1.7035,3.5243c-.5149.2863-1.0158.5965-1.5044.9253l-2.5716-2.9928-2.863,2.3294,2.569,2.9898c-.4183.4076-.8229.8306-1.2063,1.2754l-3.256-2.2506-2.1331,2.986,3.2631,2.2554q-.4368.74985-.8141,1.5452l-3.7337-1.3656-1.2579,3.439,3.7338,1.3656q-.22635.85065-.3749,1.7058l-3.9483-.3821-.2968,3.6576,3.9396.3812c.006.5872.0422,1.1715.0988,1.7528l-3.8918.6266.6845,3.627,3.8957-.6274c.1612.5665.3437,1.1266.5523,1.6776l-3.5753,1.5935,1.6186,3.3491,3.5753-1.5935c.3036.5086.6314,1.0041.9778,1.4879l-3.0138,2.4522,2.4431,2.8431,3.0105-2.4497c.4256.4165.867.8204,1.3301,1.2037l-2.2398,3.1357,3.1006,2.1432,2.2447-3.1425q.7767.4422,1.5987.8262l-1.3241,3.6202,3.5472,1.2974,1.3241-3.6202q.87555.23835,1.7544.4002l-.3125,3.8491,3.7517.3631.3116-3.8409c.6014.006,1.1991-.0177,1.7931-.0613l.7195,3.814,3.701-.5959-.7205-3.8181c.5768-.1461,1.1469-.3132,1.707-.5059l1.7035,3.5242,3.3974-1.5144-1.7034-3.5243c.5149-.2864,1.0157-.5965,1.5044-.9253l2.5716,2.9928,2.8628-2.3296-2.5689-2.9896c.4181-.4077.8229-.8306,1.2064-1.2754l3.2559,2.2506,2.1329-2.9861-3.2629-2.2554q.4368-.7497.8141-1.5451Zm-28.7132,5.0943a16.486,16.486,0,1,1,21.622-9.6374A16.74312,16.74312,0,0,1,1502.6889,658.0103Z" transform="translate(-890.23488 -111.5714)"/><path class="cls-3" d="M1507.0551,633.4607a4.33448,4.33448,0,1,0,5.5115-2.4566A4.26767,4.26767,0,0,0,1507.0551,633.4607Z" transform="translate(-890.23488 -111.5714)"/><path class="cls-2" d="M1509.6435,651.609a4.3345,4.3345,0,1,0-5.5118,2.4565A4.26789,4.26789,0,0,0,1509.6435,651.609Z" transform="translate(-890.23488 -111.5714)"/><path class="cls-2" d="M1504.5935,641.1612a4.33439,4.33439,0,1,0-5.5115,2.4565A4.26769,4.26769,0,0,0,1504.5935,641.1612Z" transform="translate(-890.23488 -111.5714)"/><path class="cls-2" d="M1517.6163,641.4519a4.2023,4.2023,0,1,0,2.6262,5.4329A4.26749,4.26749,0,0,0,1517.6163,641.4519Z" transform="translate(-890.23488 -111.5714)"/><g class="cls-1"><polygon class="cls-2" points="678.285 1.965 683.85 0 690.848 25.409 701.786 17.264 706.846 52.398 705.554 52.79 698.169 24.185 688.853 32.19 678.285 1.965"/><polygon class="cls-2" points="717.674 4.062 722.583 4.96 717.04 26.554 728.499 25.17 717.443 53.088 716.333 52.835 722.934 28.733 712.727 30.694 717.674 4.062"/><polygon class="cls-2" points="657.627 33.389 661.109 29.914 675.484 46.501 680.788 36.454 697.195 61.053 696.368 61.804 680.555 42.952 676.419 52.313 657.627 33.389"/></g><circle class="cls-2" cx="1435.282" cy="495.98065" r="11.40321" transform="translate(-688.37225 1270.24663) rotate(-54.74904)"/><path class="cls-2" d="M1557.5266,540.6921a11.40316,11.40316,0,1,1-6.7924-14.6263A11.40314,11.40314,0,0,1,1557.5266,540.6921Z" transform="translate(-890.23488 -111.5714)"/><path d="M1611.5819,222.1007a1.83191,1.83191,0,1,0,1.2585-3.4409l-7.8855-2.8842,3.2301-8.8312a16.18222,16.18222,0,1,0-7.4555-2.7269l-3.23,8.8312-7.8855-2.8841a1.83193,1.83193,0,1,0-1.2586,3.4409l7.8855,2.8842-1.9337,5.2869-7.8855-2.8841a1.83191,1.83191,0,0,0-1.2585,3.4409l7.8855,2.8842-1.9337,5.2868-7.8855-2.8842a1.832,1.832,0,0,0-1.2586,3.441l7.8855,2.8842-1.9337,5.2869-7.8855-2.8842a1.832,1.832,0,0,0-1.2585,3.441l7.8855,2.8841-1.9337,5.287-7.8855-2.8842a1.832,1.832,0,1,0-1.2586,3.441l7.8855,2.8841-8.4835,23.1948,7.4554,2.7268,8.4836-23.1947,7.8855,2.8841a1.83191,1.83191,0,1,0,1.2585-3.4409l-7.8854-2.8842,1.9337-5.2869,7.8855,2.8842a1.832,1.832,0,0,0,1.2585-3.441l-7.8855-2.8842,1.9337-5.2869,7.8855,2.8842a1.832,1.832,0,1,0,1.2586-3.441l-7.8855-2.8841,1.9336-5.2868,7.8855,2.8841a1.832,1.832,0,0,0,1.2586-3.441l-7.8855-2.8841,1.9337-5.2869Z" transform="translate(-890.23488 -111.5714)"/><path class="cls-2" d="M1601.5255,187.8219l-3.441-1.2585a12.53221,12.53221,0,0,1,16.0559-7.4562l-1.2586,3.4409A8.86358,8.86358,0,0,0,1601.5255,187.8219Z" transform="translate(-890.23488 -111.5714)"/><path d="M1642.2898,448.5122a6.6665,6.6665,0,1,0-8.6665,6.3605v29.6395h4V454.8727A6.66871,6.66871,0,0,0,1642.2898,448.5122Z" transform="translate(-890.23488 -111.5714)"/><path d="M1618.0398,448.5122a6.6665,6.6665,0,1,0-8.6665,6.3605v29.6395h4V454.8727A6.66871,6.66871,0,0,0,1618.0398,448.5122Z" transform="translate(-890.23488 -111.5714)"/><path d="M1465.2213,428.5915a6.66651,6.66651,0,1,0-8.9556,5.9464l-1.3922,29.6068,3.9956.1879,1.3921-29.6068A6.66871,6.66871,0,0,0,1465.2213,428.5915Z" transform="translate(-890.23488 -111.5714)"/><path d="M1441.1154,419.9558a6.66652,6.66652,0,1,0-10.543,2.1002l-12.5307,26.8603,3.625,1.6911,12.5307-26.8603A6.66882,6.66882,0,0,0,1441.1154,419.9558Z" transform="translate(-890.23488 -111.5714)"/><g class="cls-1"><path class="cls-2" d="M1259.0989,403.4211a17.31776,17.31776,0,0,0,5.2432,21.477,16.89778,16.89778,0,1,0,29.5,16.3873c.0828-.1705.1442-.346.2209-.5184l18.0656,13.0097,1.5846-1.9756-14.3371-11.4892-11.7079-9.3817-2.498,3.4314,6.424,4.6264a14.03718,14.03718,0,0,1-24.9597-12.6601c.1543.0814.2978.1743.4557.2503a17.22853,17.22853,0,0,0,10.0985,1.5623,14.46959,14.46959,0,1,1,14.618-19.6618,17.395,17.395,0,0,0-1.802-5.4959,14.03093,14.03093,0,0,1,12.9016,24.805l-4.7264-6.4943-3.4216,2.5147,9.1654,11.3248,11.8328,14.6198,1.971-1.5975-12.3165-16.9261a17.73457,17.73457,0,1,0-17.2072-31.0126,17.29293,17.29293,0,0,0-29.1049,3.2045Z" transform="translate(-890.23488 -111.5714)"/></g><g class="cls-1"><path class="cls-2" d="M1738.0438,568.6667a17.31793,17.31793,0,0,0-19.5884-10.2494,16.89772,16.89772,0,1,0-31.789,11.3246c.0733.1749.1645.3369.2433.5083l-21.7005,4.9707.4367,2.4946,18.0961-3.1755,14.7772-2.5936-.9264-4.142-7.7167,1.7673a14.03717,14.03717,0,0,1,25.9917-10.3776c-.163.0621-.3276.1085-.4889.1768a17.22805,17.22805,0,0,0-7.8433,6.5501,14.46959,14.46959,0,1,1,5.1067,23.9623,17.39173,17.39173,0,0,0,5.3167,2.2772,14.031,14.031,0,0,1-27.1456-6.6976l7.9978.7411.372-4.2301-14.5567-.5988-18.7924-.7725-.1025,2.535,20.8436,1.9327a17.73457,17.73457,0,1,0,34.6502,7.5652,17.29278,17.29278,0,0,0,16.8184-23.9688Z" transform="translate(-890.23488 -111.5714)"/></g><g class="cls-4"><rect class="cls-2" x="147.75262" y="279.6412" width="177.8589" height="2.2496"/><rect class="cls-2" x="110.69862" y="293.1388" width="177.8589" height="2.2496"/><rect class="cls-2" y="286.39" width="255.20902" height="2.2496"/></g><g class="cls-4"><rect class="cls-2" x="317.27282" y="138.8996" width="177.8589" height="2.2496"/><rect class="cls-2" x="280.21892" y="152.3972" width="177.8589" height="2.2496"/><rect class="cls-2" x="169.52022" y="145.6484" width="255.209" height="2.2496"/></g><g class="cls-4"><rect class="cls-2" x="519.75262" y="612.6412" width="177.8589" height="2.2496"/><rect class="cls-2" x="482.69862" y="626.1388" width="177.8589" height="2.2496"/><rect class="cls-2" x="372.00002" y="619.39" width="255.209" height="2.2496"/></g><rect class="cls-2" x="1575.0011" y="479.2384" width="5.625" height="5.625" transform="translate(2265.39232 852.5304) rotate(180)"/><rect class="cls-5" x="1585.5368" y="479.2384" width="5.625" height="5.625" transform="translate(2286.46372 852.5304) rotate(180)"/><rect class="cls-2" x="1596.0725" y="479.2384" width="5.625" height="5.625" transform="translate(2307.53512 852.5304) rotate(180)"/><rect class="cls-5" x="1606.6082" y="479.2384" width="5.625" height="5.625" transform="translate(2328.60652 852.5304) rotate(180)"/><rect class="cls-5" x="1617.1439" y="479.2384" width="5.625" height="5.625" transform="translate(2349.67792 852.5304) rotate(180)"/><rect class="cls-2" x="1627.6797" y="479.2384" width="5.625" height="5.625" transform="translate(2370.74952 852.5304) rotate(180)"/><rect class="cls-2" x="1638.2154" y="479.2384" width="5.625" height="5.625" transform="translate(2391.82092 852.5304) rotate(180)"/><rect class="cls-5" x="1648.7511" y="479.2384" width="5.625" height="5.625" transform="translate(2412.89232 852.5304) rotate(180)"/><path d="M1520.7842,382.5601a22.5,22.5,0,1,1,21.6448,23.3238A22.499,22.499,0,0,1,1520.7842,382.5601Z" transform="translate(-890.23488 -111.5714)"/><path class="cls-2" d="M1559.8484,390.6958c-10.5736,3.0355-24.052-3.8723-24.052-3.8723C1545.0593,407.0596,1559.8484,390.6958,1559.8484,390.6958Z" transform="translate(-890.23488 -111.5714)"/></svg>